<?xml version="1.0" encoding="UTF-8"?>
<svg xmlns="http://www.w3.org/2000/svg" xmlns:xlink="http://www.w3.org/1999/xlink" width="24px" height="24px" viewBox="0 0 24 24" version="1.1">
<g id="surface1">
<path style=" stroke:none;fill-rule:nonzero;fill:rgb(0%,0%,0%);fill-opacity:1;" d="M 22.511719 9.726562 L 20.585938 9.300781 C 20.4375 8.820312 20.238281 8.363281 20.015625 7.917969 L 21.054688 6.183594 C 21.445312 5.5625 21.640625 4.648438 21.054688 4.0625 L 19.996094 3.003906 C 19.410156 2.417969 18.421875 2.523438 17.824219 2.9375 L 16.136719 4.011719 C 15.699219 3.785156 15.238281 3.589844 14.765625 3.4375 L 14.332031 1.488281 C 14.203125 0.773438 13.578125 0 12.75 0 L 11.25 0 C 10.421875 0 9.914062 0.785156 9.75 1.5 L 9.269531 3.425781 C 8.761719 3.585938 8.273438 3.792969 7.808594 4.039062 L 6.078125 2.9375 C 5.480469 2.523438 4.492188 2.417969 3.90625 3.003906 L 2.84375 4.0625 C 2.257812 4.648438 2.457031 5.5625 2.84375 6.183594 L 3.941406 8.011719 C 3.734375 8.425781 3.554688 8.855469 3.414062 9.300781 L 1.488281 9.726562 C 0.773438 9.855469 0 10.480469 0 11.308594 L 0 12.808594 C 0 13.636719 0.785156 14.144531 1.5 14.308594 L 3.449219 14.796875 C 3.582031 15.210938 3.75 15.605469 3.941406 15.992188 L 2.84375 17.820312 C 2.457031 18.441406 2.261719 19.355469 2.84375 19.941406 L 3.90625 21 C 4.492188 21.585938 5.480469 21.480469 6.078125 21.066406 L 7.8125 19.964844 C 8.28125 20.210938 8.769531 20.417969 9.28125 20.582031 L 9.761719 22.5 C 9.925781 23.214844 10.433594 24 11.261719 24 L 12.761719 24 C 13.589844 24 14.214844 23.226562 14.34375 22.511719 L 14.777344 20.558594 C 15.246094 20.40625 15.699219 20.214844 16.132812 19.988281 L 17.824219 21.066406 C 18.421875 21.480469 19.410156 21.585938 19.996094 21 L 21.054688 19.941406 C 21.640625 19.355469 21.445312 18.441406 21.054688 17.820312 L 20.015625 16.082031 C 20.222656 15.671875 20.40625 15.242188 20.550781 14.796875 L 22.5 14.308594 C 23.214844 14.144531 24 13.636719 24 12.808594 L 24 11.308594 C 24 10.480469 23.226562 9.855469 22.511719 9.726562 Z M 22.5 12.703125 C 22.4375 12.75 22.316406 12.8125 22.164062 12.847656 L 19.382812 13.542969 L 19.125 14.332031 C 19.007812 14.6875 18.859375 15.046875 18.675781 15.402344 L 18.300781 16.140625 L 19.769531 18.59375 C 19.863281 18.742188 19.90625 18.875 19.921875 18.957031 L 18.933594 19.941406 C 18.839844 19.910156 18.730469 19.871094 18.679688 19.835938 L 16.210938 18.261719 L 15.441406 18.660156 C 15.074219 18.851562 14.691406 19.007812 14.316406 19.132812 L 13.496094 19.394531 L 12.878906 22.1875 C 12.851562 22.335938 12.769531 22.457031 12.714844 22.5 L 11.367188 22.5 C 11.320312 22.4375 11.257812 22.316406 11.222656 22.164062 L 10.53125 19.402344 L 9.734375 19.148438 C 9.320312 19.019531 8.910156 18.847656 8.511719 18.636719 L 7.738281 18.230469 L 5.269531 19.804688 C 5.167969 19.871094 5.0625 19.910156 4.964844 19.910156 L 3.980469 18.953125 C 3.992188 18.875 4.035156 18.746094 4.117188 18.617188 L 5.648438 16.058594 L 5.285156 15.324219 C 5.113281 14.980469 4.980469 14.652344 4.875 14.332031 L 4.617188 13.542969 L 1.863281 12.855469 C 1.691406 12.816406 1.566406 12.75 1.5 12.703125 L 1.5 11.308594 C 1.5 11.308594 1.5 11.3125 1.503906 11.3125 C 1.527344 11.3125 1.652344 11.222656 1.753906 11.203125 L 4.582031 10.578125 L 4.84375 9.75 C 4.949219 9.414062 5.09375 9.0625 5.285156 8.679688 L 5.648438 7.941406 L 4.132812 5.414062 C 4.039062 5.261719 3.992188 5.128906 3.980469 5.050781 L 4.96875 4.0625 C 5.0625 4.09375 5.171875 4.132812 5.222656 4.167969 L 7.738281 5.773438 L 8.507812 5.367188 C 8.902344 5.15625 9.3125 4.984375 9.722656 4.855469 L 10.523438 4.601562 L 11.207031 1.863281 C 11.246094 1.691406 11.308594 1.566406 11.355469 1.5 L 12.75 1.5 C 12.738281 1.515625 12.835938 1.644531 12.855469 1.753906 L 13.484375 4.601562 L 14.304688 4.863281 C 14.6875 4.988281 15.070312 5.148438 15.445312 5.34375 L 16.210938 5.742188 L 18.628906 4.203125 C 18.730469 4.132812 18.839844 4.09375 18.9375 4.09375 L 19.921875 5.050781 C 19.90625 5.128906 19.867188 5.257812 19.785156 5.390625 L 18.300781 7.859375 L 18.679688 8.601562 C 18.882812 9 19.039062 9.375 19.15625 9.75 L 19.414062 10.578125 L 22.1875 11.191406 C 22.355469 11.222656 22.484375 11.320312 22.511719 11.371094 Z M 12.011719 7.492188 C 9.519531 7.492188 7.492188 9.515625 7.492188 12 C 7.492188 14.484375 9.519531 16.507812 12.011719 16.507812 C 14.5 16.507812 16.527344 14.484375 16.527344 12 C 16.527344 9.515625 14.5 7.492188 12.011719 7.492188 Z M 12 15 C 10.347656 15 9 13.652344 9 12 C 9 10.34375 10.347656 9 12 9 C 13.65625 9 15 10.34375 15 12 C 15 13.652344 13.652344 15 12 15 Z M 12 15 "/>
</g>
</svg>
